# OBJ generated by ONSHAPE BY PTC INC, 1.192 Units = meters
mtllib Case top.mtl
g Case top
v -0.0292257 0.0684 -0.04515 
v 0.245874 0.0684 -0.04515 
v 0.245874 0.0684 -0.01 
v -0.0292257 0.0684 -0.01 
v -0.0292257 -0.0684 -0.04515 
v -0.0292257 -0.0684 -0.01 
v 0.0406743 -0.0684 -0.04515 
v 0.0406743 -0.0684 -0.01 
v 0.0634743 -0.0456 -0.04515 
v 0.0634743 -0.0456 -0.01 
v 0.0634743 -9.69842e-18 -0.01 
v 0.245874 0 -0.01 
v 0.245874 0 -0.04515 
v 0.0634743 -9.69842e-18 -0.04515 
v -0.0342257 -0.0734 -0.04515 
v -0.0342257 0.0734 -0.04515 
v 0.250874 0.0734 -0.04515 
v 0.0684743 -0.0476711 -0.04515 
v 0.0427454 -0.0734 -0.04515 
v 0.250874 -0.005 -0.04515 
v 0.0684743 -0.005 -0.04515 
v -0.0342257 0.0734 0 
v 0.250874 0.0734 0 
v 0.0427454 -0.0734 0 
v 0.0684743 -0.0476711 0 
v 0.0684743 -0.005 0 
v -0.0342257 -0.0734 0 
v 0.250874 -0.005 0 
vn 6.05356e-16 -1 0 
vn 1 5.07229e-17 0 
vn 0 1 0 
vn -0.707107 0.707107 0 
vn 0 0 -1 
vn -1 -4.05783e-16 0 
vn -5.55112e-17 1 0 
vn 0 0 -1 
vn 0 0 1 
vn -1 -9.45353e-17 0 
vn 0 -1 0 
vn 0.707107 -0.707107 0 
vn 1 0 0 
vn 5.2308e-17 -1 0 
usemtl 0.615686_0.811765_0.929412_0.000000_0.000000
o mesh0
f 1//1 2//1 3//1 
f 3//1 4//1 1//1 
o mesh1
f 5//2 1//2 4//2 
f 4//2 6//2 5//2 
o mesh2
f 7//3 5//3 6//3 
f 6//3 8//3 7//3 
o mesh3
f 9//4 7//4 8//4 
f 8//4 10//4 9//4 
o mesh4
f 4//5 11//5 10//5 
f 10//5 8//5 4//5 
f 3//5 12//5 11//5 
f 11//5 4//5 3//5 
f 8//5 6//5 4//5 
o mesh5
f 2//6 13//6 12//6 
f 12//6 3//6 2//6 
o mesh6
f 13//7 14//7 11//7 
f 11//7 12//7 13//7 
o mesh7
f 14//6 9//6 10//6 
f 10//6 11//6 14//6 
o mesh8
f 15//8 16//8 1//8 
f 17//8 2//8 1//8 
f 18//8 19//8 7//8 
f 19//8 15//8 5//8 
f 1//8 16//8 17//8 
f 20//8 13//8 2//8 
f 9//8 14//8 21//8 
f 5//8 7//8 19//8 
f 2//8 17//8 20//8 
f 13//8 20//8 21//8 
f 7//8 9//8 18//8 
f 21//8 14//8 13//8 
f 1//8 5//8 15//8 
f 21//8 18//8 9//8 
o mesh9
f 16//7 22//7 23//7 
f 23//7 17//7 16//7 
o mesh10
f 22//9 24//9 25//9 
f 23//9 22//9 26//9 
f 22//9 27//9 24//9 
f 25//9 26//9 22//9 
f 26//9 28//9 23//9 
o mesh11
f 15//10 27//10 22//10 
f 22//10 16//10 15//10 
o mesh12
f 19//11 24//11 27//11 
f 27//11 15//11 19//11 
o mesh13
f 18//12 25//12 24//12 
f 24//12 19//12 18//12 
o mesh14
f 21//13 26//13 25//13 
f 25//13 18//13 21//13 
o mesh15
f 20//14 28//14 26//14 
f 26//14 21//14 20//14 
o mesh16
f 17//13 23//13 28//13 
f 28//13 20//13 17//13 
